<?xml version="1.0" encoding="UTF-8" standalone="no"?><svg xmlns="http://www.w3.org/2000/svg" xmlns:xlink="http://www.w3.org/1999/xlink" fill="#ffffff" height="36.1" preserveAspectRatio="xMidYMid meet" version="1" viewBox="3.1 5.9 42.6 36.1" width="42.6" zoomAndPan="magnify"><g><path d="M0,0H48V48H0Z" fill="none"/><g id="change1_1"><circle cx="18" cy="24" r="4"/></g><g id="change1_2"><circle cx="30" cy="24" r="4"/></g><g id="change1_3"><path d="M33,17a1.973,1.973,0,0,1-.55-.077c-6.635-1.9-10.267-1.9-16.9,0a2,2,0,0,1-1.1-3.846c7.318-2.092,11.78-2.092,19.1,0A2,2,0,0,1,33,17Z"/></g><g id="change1_4"><path d="M24,36.508a37.935,37.935,0,0,1-10.549-1.585,2,2,0,1,1,1.1-3.846,32.167,32.167,0,0,0,18.9,0,2,2,0,0,1,1.1,3.846A37.935,37.935,0,0,1,24,36.508Z"/></g><g id="change1_5"><path d="M35,42c-2.576,0-6-5.489-6-8a2,2,0,0,1,4,0c0,.834,1.511,3.185,2.39,3.964,1.707-.308,3.645-2.546,4.782-4.78,1.116-2.935.687-10.643-2.839-20.889a15.65,15.65,0,0,0-6.051-2.114l-1.425,3.562a2,2,0,1,1-3.714-1.486l2-5a2,2,0,0,1,2.069-1.246,20.371,20.371,0,0,1,9.931,3.348,1.993,1.993,0,0,1,.743.975c3.626,10.275,4.792,19.856,2.971,24.409-.021.051-.044.1-.068.152C42.07,38.33,38.858,42,35,42Zm.617-3.862Z"/></g><g id="change1_6"><path d="M13.336,42C9.6,42,6.509,38.312,4.864,34.86c-.023-.048-.044-.1-.063-.148C3.073,30.177,4.184,20.62,7.63,10.363a2,2,0,0,1,.715-.977,18.579,18.579,0,0,1,9.437-3.374,2,2,0,0,1,2.075,1.245l2,5a2,2,0,0,1-3.714,1.486L16.722,10.19a13.73,13.73,0,0,0-5.507,2.071c-3.366,10.272-3.772,18.008-2.7,20.956,1.056,2.18,2.824,4.364,4.382,4.729A9.394,9.394,0,0,0,15,34a2,2,0,0,1,4,0,10.234,10.234,0,0,1-1.789,4.825C15.187,42,13.842,42,13.336,42Z"/></g></g></svg>